# xmcd CD database file
#
# Track frame offsets:
#	150
#	14164
#	30838
#	46946
#	65540
#	86821
#	91472
#	107014
#	120905
#	139380
#
# Disc length: 2098 seconds
#
# Revision: 0
# Processed by: cddbd v1.5.1PL0 Copyright (c) Steve Scherf et al.
# Submitted via: CDex 1.51
#
DISCID=8008300a
DTITLE=TRICK2SOUL - EASY GOING
DYEAR=2005
DGENRE=JPop
TTITLE0=01 恋のジャンキー
TTITLE1=02 リアル
TTITLE2=03 一目惚れ
TTITLE3=04 サヨナラ
TTITLE4=05 長い髪の女の子
TTITLE5=06 Manhattan
TTITLE6=07 恋愛感情
TTITLE7=08 150万馬力
TTITLE8=09 世界中に散った友よ
TTITLE9=10 F
EXTD=YEAR: 2005
EXTT0=
EXTT1=
EXTT2=
EXTT3=
EXTT4=
EXTT5=
EXTT6=
EXTT7=
EXTT8=
EXTT9=
PLAYORDER=
